<svg xmlns="http://www.w3.org/2000/svg" xmlns:xlink="http://www.w3.org/1999/xlink" width="500" zoomAndPan="magnify" viewBox="0 0 375 374.999991" height="500" preserveAspectRatio="xMidYMid meet" version="1.0"><path fill="#ed1c24" d="M 71.542969 305.476562 L 73.734375 309.273438 C 83.011719 325.351562 95.171875 338.730469 109.183594 349.125 C 116.925781 354.867188 127.113281 356.097656 136.046875 352.484375 C 136.09375 352.464844 136.140625 352.445312 136.183594 352.429688 C 136.429688 352.332031 136.605469 352.261719 136.722656 352.214844 C 136.792969 352.199219 136.84375 352.171875 136.878906 352.152344 C 137.238281 351.980469 137.59375 351.820312 137.945312 351.660156 C 139.863281 350.816406 141.765625 349.964844 143.667969 349.070312 C 147.445312 347.308594 151.179688 345.441406 154.839844 343.4375 C 158.265625 341.570312 161.628906 339.582031 164.902344 337.453125 C 166.425781 336.457031 167.941406 335.421875 169.421875 334.363281 C 169.703125 334.171875 170.132812 333.898438 170.566406 333.609375 C 169.71875 334.4375 170.546875 334.03125 171.65625 332.726562 C 171.417969 333.007812 170.996094 333.320312 170.574219 333.601562 C 170.777344 333.40625 171.058594 333.148438 171.453125 332.824219 C 174.132812 330.621094 176.699219 328.289062 179.140625 325.8125 C 180.441406 324.5 181.703125 323.148438 182.925781 321.757812 C 183.375 321.246094 183.816406 320.734375 184.238281 320.214844 C 184.253906 320.207031 184.265625 320.1875 184.273438 320.183594 C 185.46875 318.753906 185.363281 318.507812 184.996094 318.894531 C 185.757812 317.816406 186.828125 316.664062 187.328125 315.878906 C 188.199219 314.542969 189.019531 313.167969 189.804688 311.765625 C 190.511719 310.488281 191.132812 309.164062 191.792969 307.871094 C 192.09375 306.824219 192.789062 305.503906 193.085938 304.621094 C 193.84375 302.328125 195.136719 299.15625 195.480469 296.425781 C 195.429688 296.101562 195.390625 295.605469 195.410156 295.164062 C 195.464844 294.136719 195.578125 293.101562 195.621094 292.0625 C 195.726562 289.992188 195.726562 287.90625 195.65625 285.835938 C 195.613281 284.679688 195.699219 283.207031 195.601562 281.851562 C 195.601562 281.949219 195.515625 281.570312 195.269531 280.207031 C 195.085938 279.164062 194.914062 278.136719 194.714844 277.09375 C 193.90625 272.953125 192.828125 268.855469 191.5625 264.820312 C 190.996094 263.058594 190.402344 261.296875 189.769531 259.5625 C 189.40625 258.566406 189.035156 257.570312 188.644531 256.582031 C 188.304688 255.703125 186.625 253.5625 188.15625 255.28125 C 188.3125 255.464844 188.4375 255.59375 188.535156 255.703125 C 188.347656 255.457031 188.066406 255.066406 187.917969 254.742188 C 187.480469 253.773438 187.046875 252.800781 186.597656 251.832031 C 185.574219 249.640625 184.511719 247.472656 183.425781 245.3125 C 179.667969 237.867188 175.554688 230.609375 171.464844 223.347656 C 162.800781 207.964844 154.699219 192.398438 148.765625 175.714844 C 137.582031 144.277344 133.929688 109.574219 137.371094 76.4375 C 137.375 76.398438 137.382812 76.359375 137.382812 76.320312 C 137.644531 73.820312 134.324219 72.726562 133.070312 74.90625 L 73.65625 177.875 C 50.148438 218.652344 50.933594 266.777344 71.542969 305.476562 Z M 195.277344 279.894531 C 195.390625 280.425781 195.550781 281.394531 195.59375 281.738281 C 195.550781 281.078125 195.453125 280.441406 195.277344 279.894531 Z M 135.585938 352.703125 C 135.796875 352.628906 136.007812 352.542969 136.210938 352.445312 C 136.007812 352.527344 135.777344 352.621094 135.585938 352.703125 Z M 177.308594 125.984375 C 177.265625 125.722656 177.230469 125.464844 177.195312 125.210938 C 177.246094 125.730469 177.328125 126.410156 177.378906 126.71875 C 177.371094 126.597656 177.351562 126.410156 177.328125 126.144531 C 177.40625 126.65625 177.492188 127.167969 177.574219 127.679688 C 177.878906 129.714844 178.222656 131.757812 178.59375 133.785156 C 179.34375 137.855469 180.207031 141.890625 181.191406 145.898438 C 183.164062 153.917969 185.628906 161.820312 188.578125 169.53125 C 188.753906 170 189.175781 171.125 189.539062 172.085938 C 189.546875 172.121094 189.566406 172.15625 189.578125 172.191406 C 189.617188 172.285156 189.652344 172.394531 189.6875 172.480469 C 189.679688 172.457031 189.667969 172.421875 189.660156 172.394531 C 190.355469 174.191406 191.253906 175.945312 192.074219 177.691406 C 193.898438 181.582031 195.847656 185.417969 197.863281 189.214844 C 201.910156 196.808594 206.230469 204.253906 210.414062 211.78125 C 219.226562 227.628906 227.589844 244.210938 231.902344 261.921875 C 236.304688 280.039062 237.050781 300.074219 230.359375 317.746094 C 224.242188 333.925781 214.199219 348.242188 201.058594 359.519531 C 196.761719 363.214844 192.292969 366.570312 187.679688 369.664062 C 185.285156 371.265625 186.445312 375.011719 189.332031 374.984375 C 189.34375 374.984375 189.359375 374.984375 189.371094 374.984375 C 190.082031 374.972656 190.785156 374.957031 191.5 374.929688 C 235.363281 373.507812 277.527344 350.113281 301.078125 309.273438 L 303.375 305.300781 C 323.886719 266.625 324.636719 218.578125 301.144531 177.875 C 301.144531 177.875 215.476562 77.792969 200.121094 2.765625 C 199.554688 0.00390625 197.179688 7.558594 195.886719 10.089844 C 194.988281 11.820312 194.144531 13.59375 193.332031 15.375 C 193.238281 15.585938 192.789062 16.625 192.46875 17.351562 C 192.726562 16.738281 193.035156 15.925781 193.074219 15.796875 C 193.027344 15.90625 192.828125 16.390625 192.378906 17.515625 C 192.347656 17.605469 192.3125 17.699219 192.277344 17.789062 C 192.269531 17.808594 192.257812 17.824219 192.25 17.839844 C 192.25 17.847656 192.25 17.847656 192.25 17.847656 C 192.214844 17.917969 192.1875 17.972656 192.179688 18.007812 C 192.1875 18 192.195312 17.980469 192.203125 17.964844 C 190.683594 21.832031 189.191406 25.71875 187.835938 29.65625 C 185.027344 37.824219 182.660156 46.152344 180.757812 54.574219 C 179.816406 58.722656 178.992188 62.902344 178.277344 67.085938 C 177.976562 68.855469 177.730469 70.648438 177.449219 72.414062 C 177.476562 72.214844 177.492188 72.011719 177.519531 71.808594 C 177.574219 71.332031 177.589844 71.105469 177.589844 71.042969 C 177.519531 71.28125 177.070312 74.726562 177.441406 72.460938 C 177.328125 73.527344 177.183594 74.59375 177.070312 75.660156 C 175.300781 92.207031 175.539062 108.726562 177.238281 125.261719 C 177.265625 125.546875 177.289062 125.785156 177.308594 125.984375 Z M 191.65625 308.488281 C 191.675781 308.398438 192.625 306.410156 192.625 306.320312 C 192.601562 306.320312 192.503906 306.488281 192.292969 306.894531 C 192.121094 307.222656 191.949219 307.546875 191.792969 307.871094 C 191.71875 308.09375 191.675781 308.292969 191.65625 308.488281 Z M 195.542969 294.53125 C 195.75 297.121094 195.59375 297.121094 195.480469 296.425781 C 195.566406 295.753906 195.59375 295.121094 195.542969 294.53125 " fill-opacity="1" fill-rule="nonzero"/></svg>