<svg xmlns="http://www.w3.org/2000/svg" xmlns:xlink="http://www.w3.org/1999/xlink" width="733" zoomAndPan="magnify" viewBox="0 0 549.75 99.749996" height="133" preserveAspectRatio="xMidYMid meet" version="1.0"><defs><g/></defs><g fill="#ff3131" fill-opacity="1"><g transform="translate(105.551585, 56.044687)"><g><path d="M 5.410156 0 L 26.601562 0 C 35.746094 0 41.929688 -5.023438 41.929688 -12.625 C 41.929688 -17.453125 39.417969 -21.320312 35.167969 -23.1875 C 38.582031 -25.183594 40.578125 -28.726562 40.578125 -32.976562 C 40.578125 -40.386719 34.71875 -45.085938 25.570312 -45.085938 L 5.410156 -45.085938 Z M 15.523438 -8.117188 L 15.523438 -18.9375 L 25.054688 -18.9375 C 29.113281 -18.9375 31.433594 -16.941406 31.433594 -13.527344 C 31.433594 -10.113281 29.113281 -8.117188 25.054688 -8.117188 Z M 15.523438 -26.730469 L 15.523438 -36.972656 L 24.023438 -36.972656 C 27.953125 -36.972656 30.144531 -35.167969 30.144531 -31.882812 C 30.144531 -28.597656 27.953125 -26.730469 24.023438 -26.730469 Z M 15.523438 -26.730469 "/></g></g></g><g fill="#ff3131" fill-opacity="1"><g transform="translate(149.927175, 56.044687)"><g><path d="M 21.511719 0.902344 C 32.71875 0.902344 40.449219 -6.375 40.449219 -16.941406 C 40.449219 -27.4375 32.71875 -34.71875 21.511719 -34.71875 C 10.242188 -34.71875 2.511719 -27.4375 2.511719 -16.941406 C 2.511719 -6.375 10.242188 0.902344 21.511719 0.902344 Z M 12.171875 -16.941406 C 12.171875 -22.480469 16.039062 -26.34375 21.511719 -26.34375 C 26.988281 -26.34375 30.789062 -22.480469 30.789062 -16.941406 C 30.789062 -11.402344 26.988281 -7.535156 21.511719 -7.535156 C 16.039062 -7.535156 12.171875 -11.402344 12.171875 -16.941406 Z M 12.171875 -16.941406 "/></g></g></g><g fill="#ff3131" fill-opacity="1"><g transform="translate(192.885838, 56.044687)"><g><path d="M 21.511719 0.902344 C 32.71875 0.902344 40.449219 -6.375 40.449219 -16.941406 C 40.449219 -27.4375 32.71875 -34.71875 21.511719 -34.71875 C 10.242188 -34.71875 2.511719 -27.4375 2.511719 -16.941406 C 2.511719 -6.375 10.242188 0.902344 21.511719 0.902344 Z M 12.171875 -16.941406 C 12.171875 -22.480469 16.039062 -26.34375 21.511719 -26.34375 C 26.988281 -26.34375 30.789062 -22.480469 30.789062 -16.941406 C 30.789062 -11.402344 26.988281 -7.535156 21.511719 -7.535156 C 16.039062 -7.535156 12.171875 -11.402344 12.171875 -16.941406 Z M 12.171875 -16.941406 "/></g></g></g><g fill="#ff3131" fill-opacity="1"><g transform="translate(235.844501, 56.044687)"><g><path d="M 4.894531 0 L 14.683594 0 L 14.683594 -12.882812 L 19.96875 -12.882812 L 27.4375 0 L 38.839844 0 L 29.113281 -16.167969 C 30.917969 -17.777344 32.332031 -20.03125 33.429688 -23.058594 L 37.359375 -33.816406 L 26.792969 -33.816406 L 24.410156 -26.472656 C 23.125 -22.671875 21.320312 -21.640625 17.199219 -21.640625 L 14.683594 -21.640625 L 14.683594 -47.664062 L 4.894531 -47.664062 Z M 4.894531 0 "/></g></g></g><g fill="#ff3131" fill-opacity="1"><g transform="translate(276.355743, 56.044687)"><g><path d="M 26.40625 0.902344 C 41.285156 0.902344 50.882812 -10.113281 49.851562 -25.570312 L 24.410156 -25.570312 L 24.410156 -17.648438 L 39.03125 -17.648438 C 37.742188 -12.171875 33.105469 -8.503906 26.535156 -8.503906 C 18.292969 -8.503906 13.011719 -14.429688 13.011719 -22.542969 C 13.011719 -30.789062 18.484375 -36.585938 26.40625 -36.585938 C 31.433594 -36.585938 35.617188 -34.265625 37.808594 -30.335938 L 48.824219 -30.335938 C 46.117188 -39.804688 37.164062 -45.988281 26.214844 -45.988281 C 12.496094 -45.988281 2.769531 -36.261719 2.769531 -22.542969 C 2.769531 -8.757812 12.558594 0.902344 26.40625 0.902344 Z M 26.40625 0.902344 "/></g></g></g><g fill="#ff3131" fill-opacity="1"><g transform="translate(328.910872, 56.044687)"><g><path d="M 18.355469 0.902344 C 22.800781 0.902344 26.792969 -0.644531 29.5 -3.800781 L 30.53125 0 L 37.808594 0 L 37.808594 -33.816406 L 28.019531 -33.816406 L 28.019531 -16.167969 C 28.019531 -10.820312 25.121094 -7.535156 20.675781 -7.535156 C 16.554688 -7.535156 14.042969 -10.433594 14.042969 -15.394531 L 14.042969 -33.816406 L 4.25 -33.816406 L 4.25 -14.429688 C 4.25 -5.023438 9.597656 0.902344 18.355469 0.902344 Z M 18.355469 0.902344 "/></g></g></g><g fill="#ff3131" fill-opacity="1"><g transform="translate(371.611912, 56.044687)"><g><path d="M 4.894531 0 L 14.683594 0 L 14.683594 -14.941406 C 14.683594 -22.222656 18.097656 -24.925781 23.703125 -24.925781 L 27.4375 -24.925781 L 27.4375 -33.816406 L 23.765625 -33.816406 C 18.808594 -33.816406 15.652344 -32.460938 13.460938 -29.304688 L 12.171875 -33.816406 L 4.894531 -33.816406 Z M 4.894531 0 "/></g></g></g><g fill="#ff3131" fill-opacity="1"><g transform="translate(401.238583, 56.044687)"><g><path d="M 18.355469 0.902344 C 22.800781 0.902344 26.792969 -0.644531 29.5 -3.800781 L 30.53125 0 L 37.808594 0 L 37.808594 -33.816406 L 28.019531 -33.816406 L 28.019531 -16.167969 C 28.019531 -10.820312 25.121094 -7.535156 20.675781 -7.535156 C 16.554688 -7.535156 14.042969 -10.433594 14.042969 -15.394531 L 14.042969 -33.816406 L 4.25 -33.816406 L 4.25 -14.429688 C 4.25 -5.023438 9.597656 0.902344 18.355469 0.902344 Z M 18.355469 0.902344 "/></g></g></g><g fill="#121212" fill-opacity="1"><g transform="translate(118.131584, 89.727058)"><g><path d="M 6.632812 0.257812 C 9.660156 0.257812 11.621094 -1.226562 11.621094 -3.640625 C 11.621094 -5.679688 10.253906 -6.910156 6.710938 -7.78125 C 4.019531 -8.433594 3.128906 -9.144531 3.128906 -10.292969 C 3.128906 -11.621094 4.316406 -12.453125 6.296875 -12.453125 C 8.332031 -12.453125 9.601562 -11.421875 9.640625 -9.757812 L 11.363281 -9.757812 C 11.34375 -12.453125 9.402344 -14.113281 6.296875 -14.113281 C 3.265625 -14.113281 1.347656 -12.628906 1.347656 -10.292969 C 1.347656 -8.15625 2.871094 -6.96875 6.273438 -6.15625 C 8.769531 -5.5625 9.820312 -4.871094 9.820312 -3.582031 C 9.820312 -2.21875 8.589844 -1.40625 6.632812 -1.40625 C 4.472656 -1.40625 2.96875 -2.472656 2.929688 -4.257812 L 1.1875 -4.257812 C 1.207031 -1.542969 3.324219 0.257812 6.632812 0.257812 Z M 6.632812 0.257812 "/></g></g></g><g fill="#121212" fill-opacity="1"><g transform="translate(132.779586, 89.727058)"><g><path d="M 8.15625 0.257812 C 11.519531 0.257812 14.253906 -1.78125 15.085938 -4.871094 L 13.242188 -4.871094 C 12.53125 -2.792969 10.570312 -1.484375 8.214844 -1.484375 C 5.128906 -1.484375 2.929688 -3.722656 2.929688 -6.929688 C 2.929688 -10.136719 5.128906 -12.371094 8.214844 -12.371094 C 10.511719 -12.371094 12.390625 -11.144531 13.105469 -9.144531 L 14.964844 -9.144531 C 14.054688 -12.195312 11.421875 -14.113281 8.15625 -14.113281 C 4.078125 -14.113281 1.148438 -11.105469 1.148438 -6.929688 C 1.148438 -2.75 4.078125 0.257812 8.15625 0.257812 Z M 8.15625 0.257812 "/></g></g></g><g fill="#121212" fill-opacity="1"><g transform="translate(150.772784, 89.727058)"><g><path d="M 11.105469 0 L 12.847656 0 L 12.847656 -13.855469 L 11.105469 -13.855469 L 11.105469 -7.898438 L 3.761719 -7.898438 L 3.761719 -13.855469 L 2.019531 -13.855469 L 2.019531 0 L 3.761719 0 L 3.761719 -6.234375 L 11.105469 -6.234375 Z M 11.105469 0 "/></g></g></g><g fill="#121212" fill-opacity="1"><g transform="translate(167.479367, 89.727058)"><g><path d="M 2.019531 0 L 10.648438 0 L 10.648438 -1.625 L 3.761719 -1.625 L 3.761719 -6.253906 L 9.9375 -6.253906 L 9.9375 -7.859375 L 3.761719 -7.859375 L 3.761719 -12.234375 L 10.433594 -12.234375 L 10.433594 -13.855469 L 2.019531 -13.855469 Z M 2.019531 0 "/></g></g></g><g fill="#121212" fill-opacity="1"><g transform="translate(181.256442, 89.727058)"><g><path d="M 2.019531 0 L 6.808594 0 C 11.066406 0 13.917969 -2.832031 13.917969 -6.929688 C 13.917969 -11.027344 11.066406 -13.855469 6.808594 -13.855469 L 2.019531 -13.855469 Z M 3.761719 -1.664062 L 3.761719 -12.195312 L 6.730469 -12.195312 C 9.957031 -12.195312 12.132812 -10.074219 12.132812 -6.929688 C 12.132812 -3.78125 9.976562 -1.664062 6.808594 -1.664062 Z M 3.761719 -1.664062 "/></g></g></g><g fill="#121212" fill-opacity="1"><g transform="translate(198.160967, 89.727058)"><g><path d="M 7.207031 0.238281 C 10.550781 0.238281 12.570312 -1.960938 12.570312 -5.640625 L 12.570312 -13.855469 L 10.828125 -13.855469 L 10.828125 -5.761719 C 10.828125 -2.929688 9.582031 -1.464844 7.207031 -1.464844 C 4.851562 -1.464844 3.582031 -2.929688 3.582031 -5.761719 L 3.582031 -13.855469 L 1.859375 -13.855469 L 1.859375 -5.640625 C 1.859375 -1.960938 3.859375 0.238281 7.207031 0.238281 Z M 7.207031 0.238281 "/></g></g></g><g fill="#121212" fill-opacity="1"><g transform="translate(214.432077, 89.727058)"><g><path d="M 2.019531 0 L 10.492188 0 L 10.492188 -1.664062 L 3.761719 -1.664062 L 3.761719 -13.855469 L 2.019531 -13.855469 Z M 2.019531 0 "/></g></g></g><g fill="#121212" fill-opacity="1"><g transform="translate(227.377802, 89.727058)"><g><path d="M 2.019531 0 L 3.761719 0 L 3.761719 -13.855469 L 2.019531 -13.855469 Z M 2.019531 0 "/></g></g></g><g fill="#121212" fill-opacity="1"><g transform="translate(234.998938, 89.727058)"><g><path d="M 2.019531 0 L 3.742188 0 L 3.742188 -10.847656 L 11.402344 0 L 13.027344 0 L 13.027344 -13.855469 L 11.324219 -13.855469 L 11.324219 -3.007812 L 3.664062 -13.855469 L 2.019531 -13.855469 Z M 2.019531 0 "/></g></g></g><g fill="#121212" fill-opacity="1"><g transform="translate(251.883666, 89.727058)"><g><path d="M 8.195312 0.257812 C 12.453125 0.257812 15.320312 -2.96875 15.242188 -7.523438 L 7.71875 -7.523438 L 7.71875 -5.859375 L 13.363281 -5.859375 C 13.003906 -3.246094 11.027344 -1.484375 8.234375 -1.484375 C 5.128906 -1.484375 2.929688 -3.722656 2.929688 -6.929688 C 2.929688 -10.136719 5.105469 -12.371094 8.214844 -12.371094 C 10.351562 -12.371094 12.054688 -11.324219 12.925781 -9.542969 L 14.828125 -9.542969 C 13.9375 -12.273438 11.324219 -14.113281 8.15625 -14.113281 C 4.097656 -14.113281 1.148438 -11.085938 1.148438 -6.929688 C 1.148438 -2.75 4.117188 0.257812 8.195312 0.257812 Z M 8.195312 0.257812 "/></g></g></g><g fill="#121212" fill-opacity="1"><g transform="translate(270.055008, 89.727058)"><g/></g></g><g fill="#121212" fill-opacity="1"><g transform="translate(276.805203, 89.727058)"><g><path d="M 2.019531 0 L 3.761719 0 L 3.761719 -10.609375 L 8.355469 -3.683594 L 9.777344 -3.683594 L 14.371094 -10.589844 L 14.371094 0 L 16.113281 0 L 16.113281 -13.855469 L 14.492188 -13.855469 L 9.085938 -5.640625 L 3.640625 -13.855469 L 2.019531 -13.855469 Z M 2.019531 0 "/></g></g></g><g fill="#121212" fill-opacity="1"><g transform="translate(296.777791, 89.727058)"><g><path d="M 0.335938 0 L 2.199219 0 L 3.464844 -3.148438 L 10.214844 -3.148438 L 11.519531 0 L 13.363281 0 L 7.660156 -13.855469 L 6.039062 -13.855469 Z M 4.136719 -4.769531 L 6.847656 -11.421875 L 9.5625 -4.769531 Z M 4.136719 -4.769531 "/></g></g></g><g fill="#121212" fill-opacity="1"><g transform="translate(312.316527, 89.727058)"><g><path d="M 2.019531 0 L 6.808594 0 C 11.066406 0 13.917969 -2.832031 13.917969 -6.929688 C 13.917969 -11.027344 11.066406 -13.855469 6.808594 -13.855469 L 2.019531 -13.855469 Z M 3.761719 -1.664062 L 3.761719 -12.195312 L 6.730469 -12.195312 C 9.957031 -12.195312 12.132812 -10.074219 12.132812 -6.929688 C 12.132812 -3.78125 9.976562 -1.664062 6.808594 -1.664062 Z M 3.761719 -1.664062 "/></g></g></g><g fill="#121212" fill-opacity="1"><g transform="translate(329.221052, 89.727058)"><g><path d="M 2.019531 0 L 10.648438 0 L 10.648438 -1.625 L 3.761719 -1.625 L 3.761719 -6.253906 L 9.9375 -6.253906 L 9.9375 -7.859375 L 3.761719 -7.859375 L 3.761719 -12.234375 L 10.433594 -12.234375 L 10.433594 -13.855469 L 2.019531 -13.855469 Z M 2.019531 0 "/></g></g></g><g fill="#121212" fill-opacity="1"><g transform="translate(349.748318, 89.727058)"><g><path d="M 6.632812 0.257812 C 9.660156 0.257812 11.621094 -1.226562 11.621094 -3.640625 C 11.621094 -5.679688 10.253906 -6.910156 6.710938 -7.78125 C 4.019531 -8.433594 3.128906 -9.144531 3.128906 -10.292969 C 3.128906 -11.621094 4.316406 -12.453125 6.296875 -12.453125 C 8.332031 -12.453125 9.601562 -11.421875 9.640625 -9.757812 L 11.363281 -9.757812 C 11.34375 -12.453125 9.402344 -14.113281 6.296875 -14.113281 C 3.265625 -14.113281 1.347656 -12.628906 1.347656 -10.292969 C 1.347656 -8.15625 2.871094 -6.96875 6.273438 -6.15625 C 8.769531 -5.5625 9.820312 -4.871094 9.820312 -3.582031 C 9.820312 -2.21875 8.589844 -1.40625 6.632812 -1.40625 C 4.472656 -1.40625 2.96875 -2.472656 2.929688 -4.257812 L 1.1875 -4.257812 C 1.207031 -1.542969 3.324219 0.257812 6.632812 0.257812 Z M 6.632812 0.257812 "/></g></g></g><g fill="#121212" fill-opacity="1"><g transform="translate(364.39633, 89.727058)"><g><path d="M 2.019531 0 L 3.761719 0 L 3.761719 -13.855469 L 2.019531 -13.855469 Z M 2.019531 0 "/></g></g></g><g fill="#121212" fill-opacity="1"><g transform="translate(372.017481, 89.727058)"><g><path d="M 2.019531 0 L 3.761719 0 L 3.761719 -10.609375 L 8.355469 -3.683594 L 9.777344 -3.683594 L 14.371094 -10.589844 L 14.371094 0 L 16.113281 0 L 16.113281 -13.855469 L 14.492188 -13.855469 L 9.085938 -5.640625 L 3.640625 -13.855469 L 2.019531 -13.855469 Z M 2.019531 0 "/></g></g></g><g fill="#121212" fill-opacity="1"><g transform="translate(391.990068, 89.727058)"><g><path d="M 2.019531 0 L 3.761719 0 L 3.761719 -4.554688 L 6.710938 -4.554688 C 9.839844 -4.554688 11.859375 -6.355469 11.859375 -9.203125 C 11.859375 -12.035156 9.839844 -13.855469 6.710938 -13.855469 L 2.019531 -13.855469 Z M 3.761719 -6.175781 L 3.761719 -12.195312 L 6.671875 -12.195312 C 8.90625 -12.195312 10.074219 -11.164062 10.074219 -9.183594 C 10.074219 -7.207031 8.90625 -6.175781 6.671875 -6.175781 Z M 3.761719 -6.175781 "/></g></g></g><g fill="#121212" fill-opacity="1"><g transform="translate(406.47973, 89.727058)"><g><path d="M 2.019531 0 L 10.492188 0 L 10.492188 -1.664062 L 3.761719 -1.664062 L 3.761719 -13.855469 L 2.019531 -13.855469 Z M 2.019531 0 "/></g></g></g><g fill="#121212" fill-opacity="1"><g transform="translate(419.425455, 89.727058)"><g><path d="M 2.019531 0 L 10.648438 0 L 10.648438 -1.625 L 3.761719 -1.625 L 3.761719 -6.253906 L 9.9375 -6.253906 L 9.9375 -7.859375 L 3.761719 -7.859375 L 3.761719 -12.234375 L 10.433594 -12.234375 L 10.433594 -13.855469 L 2.019531 -13.855469 Z M 2.019531 0 "/></g></g></g></svg>